<?xml version="1.0" encoding="UTF-8" standalone="no"?>
<!DOCTYPE svg PUBLIC "-//W3C//DTD SVG 1.1//EN"
 "http://www.w3.org/Graphics/SVG/1.1/DTD/svg11.dtd">
<!-- Generated by graphviz version 2.28.0 (20130109.1152)
 -->
<!-- Title: models_diagram Pages: 1 -->
<svg width="651pt" height="1116pt"
 viewBox="0.00 0.00 650.82 1116.00" xmlns="http://www.w3.org/2000/svg" xmlns:xlink="http://www.w3.org/1999/xlink">
<g id="graph1" class="graph" transform="scale(1 1) rotate(0) translate(4 1112)">
<title>models_diagram</title>
<polygon fill="white" stroke="white" points="-4,5 -4,-1112 647.82,-1112 647.82,5 -4,5"/>
<!-- _diagram_info -->
<g id="node1" class="node"><title>_diagram_info</title>
<text text-anchor="start" x="95" y="-1071.6" font-family="Times,serif" font-size="13.00">Models diagram</text>
<text text-anchor="start" x="95" y="-1057.6" font-family="Times,serif" font-size="13.00">Date: Apr 07 2013 &#45; 23:48</text>
<text text-anchor="start" x="95" y="-1043.6" font-family="Times,serif" font-size="13.00">Migration version: 20130407173216</text>
<text text-anchor="start" x="95" y="-1029.6" font-family="Times,serif" font-size="13.00">Generated by RailRoady 1.1.0</text>
<text text-anchor="start" x="95" y="-1015.6" font-family="Times,serif" font-size="13.00">http://railroady.prestonlee.com</text>
</g>
<!-- Synset -->
<g id="node2" class="node"><title>Synset</title>
<polyline fill="none" stroke="black" points="168,-766 286,-766 "/>
<path fill="none" stroke="black" d="M286,-766C292,-766 298,-772 298,-778"/>
<polyline fill="none" stroke="black" points="298,-778 298,-920 "/>
<path fill="none" stroke="black" d="M298,-920C298,-926 292,-932 286,-932"/>
<polyline fill="none" stroke="black" points="286,-932 168,-932 "/>
<path fill="none" stroke="black" d="M168,-932C162,-932 156,-926 156,-920"/>
<polyline fill="none" stroke="black" points="156,-920 156,-778 "/>
<path fill="none" stroke="black" d="M156,-778C156,-772 162,-766 168,-766"/>
<text text-anchor="middle" x="227" y="-916.8" font-family="Times,serif" font-size="14.00">Synset</text>
<polyline fill="none" stroke="black" points="156,-909 298,-909 "/>
<text text-anchor="start" x="164" y="-893.8" font-family="Times,serif" font-size="14.00">id :integer</text>
<text text-anchor="start" x="164" y="-878.8" font-family="Times,serif" font-size="14.00">author_id :integer</text>
<text text-anchor="start" x="164" y="-863.8" font-family="Times,serif" font-size="14.00">approver_id :integer</text>
<text text-anchor="start" x="164" y="-848.8" font-family="Times,serif" font-size="14.00">approved_at :datetime</text>
<text text-anchor="start" x="164" y="-833.8" font-family="Times,serif" font-size="14.00">revision :integer</text>
<text text-anchor="start" x="164" y="-818.8" font-family="Times,serif" font-size="14.00">deleted_at :datetime</text>
<text text-anchor="start" x="164" y="-803.8" font-family="Times,serif" font-size="14.00">updated_at :datetime</text>
<text text-anchor="start" x="164" y="-788.8" font-family="Times,serif" font-size="14.00">words_ids :integer</text>
<text text-anchor="start" x="164" y="-773.8" font-family="Times,serif" font-size="14.00">definitions_ids :integer</text>
</g>
<!-- OldSynset -->
<g id="node5" class="node"><title>OldSynset</title>
<polyline fill="none" stroke="black" points="168,-501.5 286,-501.5 "/>
<path fill="none" stroke="black" d="M286,-501.5C292,-501.5 298,-507.5 298,-513.5"/>
<polyline fill="none" stroke="black" points="298,-513.5 298,-670.5 "/>
<path fill="none" stroke="black" d="M298,-670.5C298,-676.5 292,-682.5 286,-682.5"/>
<polyline fill="none" stroke="black" points="286,-682.5 168,-682.5 "/>
<path fill="none" stroke="black" d="M168,-682.5C162,-682.5 156,-676.5 156,-670.5"/>
<polyline fill="none" stroke="black" points="156,-670.5 156,-513.5 "/>
<path fill="none" stroke="black" d="M156,-513.5C156,-507.5 162,-501.5 168,-501.5"/>
<text text-anchor="middle" x="227" y="-667.3" font-family="Times,serif" font-size="14.00">OldSynset</text>
<polyline fill="none" stroke="black" points="156,-659.5 298,-659.5 "/>
<text text-anchor="start" x="164" y="-644.3" font-family="Times,serif" font-size="14.00">id :integer</text>
<text text-anchor="start" x="164" y="-629.3" font-family="Times,serif" font-size="14.00">author_id :integer</text>
<text text-anchor="start" x="164" y="-614.3" font-family="Times,serif" font-size="14.00">approver_id :integer</text>
<text text-anchor="start" x="164" y="-599.3" font-family="Times,serif" font-size="14.00">approved_at :datetime</text>
<text text-anchor="start" x="164" y="-584.3" font-family="Times,serif" font-size="14.00">revision :integer</text>
<text text-anchor="start" x="164" y="-569.3" font-family="Times,serif" font-size="14.00">deleted_at :datetime</text>
<text text-anchor="start" x="164" y="-554.3" font-family="Times,serif" font-size="14.00">synset_id :integer</text>
<text text-anchor="start" x="164" y="-539.3" font-family="Times,serif" font-size="14.00">created_at :datetime</text>
<text text-anchor="start" x="164" y="-524.3" font-family="Times,serif" font-size="14.00">words_ids :integer</text>
<text text-anchor="start" x="164" y="-509.3" font-family="Times,serif" font-size="14.00">definitions_ids :integer</text>
</g>
<!-- Synset&#45;&gt;OldSynset -->
<g id="edge2" class="edge"><title>Synset&#45;&gt;OldSynset</title>
<path fill="none" stroke="#51a06c" d="M227,-757.752C227,-736.769 227,-714.311 227,-692.938"/>
<ellipse fill="none" stroke="#51a06c" cx="227" cy="-761.913" rx="4" ry="4"/>
<polygon fill="#51a06c" stroke="#51a06c" points="227,-692.875 231.5,-682.875 227,-687.875 227,-682.875 227,-682.875 227,-682.875 227,-687.875 222.5,-682.875 227,-692.875 227,-692.875"/>
</g>
<!-- Definition -->
<g id="node6" class="node"><title>Definition</title>
<polyline fill="none" stroke="black" points="12,-501.5 126,-501.5 "/>
<path fill="none" stroke="black" d="M126,-501.5C132,-501.5 138,-507.5 138,-513.5"/>
<polyline fill="none" stroke="black" points="138,-513.5 138,-670.5 "/>
<path fill="none" stroke="black" d="M138,-670.5C138,-676.5 132,-682.5 126,-682.5"/>
<polyline fill="none" stroke="black" points="126,-682.5 12,-682.5 "/>
<path fill="none" stroke="black" d="M12,-682.5C6,-682.5 0,-676.5 0,-670.5"/>
<polyline fill="none" stroke="black" points="0,-670.5 0,-513.5 "/>
<path fill="none" stroke="black" d="M0,-513.5C0,-507.5 6,-501.5 12,-501.5"/>
<text text-anchor="middle" x="69" y="-667.3" font-family="Times,serif" font-size="14.00">Definition</text>
<polyline fill="none" stroke="black" points="0,-659.5 138,-659.5 "/>
<text text-anchor="start" x="8" y="-644.3" font-family="Times,serif" font-size="14.00">id :integer</text>
<text text-anchor="start" x="8" y="-629.3" font-family="Times,serif" font-size="14.00">author_id :integer</text>
<text text-anchor="start" x="8" y="-614.3" font-family="Times,serif" font-size="14.00">approver_id :integer</text>
<text text-anchor="start" x="8" y="-599.3" font-family="Times,serif" font-size="14.00">approved_at :datetime</text>
<text text-anchor="start" x="8" y="-584.3" font-family="Times,serif" font-size="14.00">revision :integer</text>
<text text-anchor="start" x="8" y="-569.3" font-family="Times,serif" font-size="14.00">text :text</text>
<text text-anchor="start" x="8" y="-554.3" font-family="Times,serif" font-size="14.00">source :string</text>
<text text-anchor="start" x="8" y="-539.3" font-family="Times,serif" font-size="14.00">uri :string</text>
<text text-anchor="start" x="8" y="-524.3" font-family="Times,serif" font-size="14.00">updated_at :datetime</text>
<text text-anchor="start" x="8" y="-509.3" font-family="Times,serif" font-size="14.00">deleted_at :datetime</text>
</g>
<!-- Synset&#45;&gt;Definition -->
<g id="edge4" class="edge"><title>Synset&#45;&gt;Definition</title>
<path fill="none" stroke="#6a02ba" d="M165.398,-759.018C151.583,-737.25 137.029,-713.83 123.524,-691.64"/>
<ellipse fill="none" stroke="#6a02ba" cx="167.637" cy="-762.538" rx="4.00002" ry="4.00002"/>
<polygon fill="#6a02ba" stroke="#6a02ba" points="123.394,-691.425 122.053,-680.541 120.8,-687.15 118.206,-682.875 118.206,-682.875 118.206,-682.875 120.8,-687.15 114.359,-685.21 123.394,-691.425 123.394,-691.425"/>
</g>
<!-- SynsetWord -->
<g id="node7" class="node"><title>SynsetWord</title>
<polyline fill="none" stroke="black" points="328,-494 442,-494 "/>
<path fill="none" stroke="black" d="M442,-494C448,-494 454,-500 454,-506"/>
<polyline fill="none" stroke="black" points="454,-506 454,-678 "/>
<path fill="none" stroke="black" d="M454,-678C454,-684 448,-690 442,-690"/>
<polyline fill="none" stroke="black" points="442,-690 328,-690 "/>
<path fill="none" stroke="black" d="M328,-690C322,-690 316,-684 316,-678"/>
<polyline fill="none" stroke="black" points="316,-678 316,-506 "/>
<path fill="none" stroke="black" d="M316,-506C316,-500 322,-494 328,-494"/>
<text text-anchor="middle" x="385" y="-674.8" font-family="Times,serif" font-size="14.00">SynsetWord</text>
<polyline fill="none" stroke="black" points="316,-667 454,-667 "/>
<text text-anchor="start" x="324" y="-651.8" font-family="Times,serif" font-size="14.00">id :integer</text>
<text text-anchor="start" x="324" y="-636.8" font-family="Times,serif" font-size="14.00">author_id :integer</text>
<text text-anchor="start" x="324" y="-621.8" font-family="Times,serif" font-size="14.00">approver_id :integer</text>
<text text-anchor="start" x="324" y="-606.8" font-family="Times,serif" font-size="14.00">approved_at :datetime</text>
<text text-anchor="start" x="324" y="-591.8" font-family="Times,serif" font-size="14.00">revision :integer</text>
<text text-anchor="start" x="324" y="-576.8" font-family="Times,serif" font-size="14.00">word_id :integer</text>
<text text-anchor="start" x="324" y="-561.8" font-family="Times,serif" font-size="14.00">nsg :boolean</text>
<text text-anchor="start" x="324" y="-546.8" font-family="Times,serif" font-size="14.00">marks :string</text>
<text text-anchor="start" x="324" y="-531.8" font-family="Times,serif" font-size="14.00">samples_ids :integer</text>
<text text-anchor="start" x="324" y="-516.8" font-family="Times,serif" font-size="14.00">updated_at :datetime</text>
<text text-anchor="start" x="324" y="-501.8" font-family="Times,serif" font-size="14.00">deleted_at :datetime</text>
</g>
<!-- Synset&#45;&gt;SynsetWord -->
<g id="edge6" class="edge"><title>Synset&#45;&gt;SynsetWord</title>
<path fill="none" stroke="#cc1996" d="M273.908,-758.787C282.01,-744.328 290.551,-729.634 299,-716 302.596,-710.196 306.357,-704.292 310.212,-698.369"/>
<ellipse fill="none" stroke="#cc1996" cx="271.915" cy="-762.366" rx="4.00002" ry="4.00002"/>
<polygon fill="#cc1996" stroke="#cc1996" points="310.426,-698.043 319.678,-692.158 313.172,-693.865 315.918,-689.686 315.918,-689.686 315.918,-689.686 313.172,-693.865 312.157,-687.215 310.426,-698.043 310.426,-698.043"/>
<text text-anchor="middle" x="316" y="-720.3" font-family="Times,serif" font-size="14.00">words</text>
</g>
<!-- Sample -->
<g id="node3" class="node"><title>Sample</title>
<polyline fill="none" stroke="black" points="396,-251.5 510,-251.5 "/>
<path fill="none" stroke="black" d="M510,-251.5C516,-251.5 522,-257.5 522,-263.5"/>
<polyline fill="none" stroke="black" points="522,-263.5 522,-420.5 "/>
<path fill="none" stroke="black" d="M522,-420.5C522,-426.5 516,-432.5 510,-432.5"/>
<polyline fill="none" stroke="black" points="510,-432.5 396,-432.5 "/>
<path fill="none" stroke="black" d="M396,-432.5C390,-432.5 384,-426.5 384,-420.5"/>
<polyline fill="none" stroke="black" points="384,-420.5 384,-263.5 "/>
<path fill="none" stroke="black" d="M384,-263.5C384,-257.5 390,-251.5 396,-251.5"/>
<text text-anchor="middle" x="453" y="-417.3" font-family="Times,serif" font-size="14.00">Sample</text>
<polyline fill="none" stroke="black" points="384,-409.5 522,-409.5 "/>
<text text-anchor="start" x="392" y="-394.3" font-family="Times,serif" font-size="14.00">id :integer</text>
<text text-anchor="start" x="392" y="-379.3" font-family="Times,serif" font-size="14.00">author_id :integer</text>
<text text-anchor="start" x="392" y="-364.3" font-family="Times,serif" font-size="14.00">approver_id :integer</text>
<text text-anchor="start" x="392" y="-349.3" font-family="Times,serif" font-size="14.00">approved_at :datetime</text>
<text text-anchor="start" x="392" y="-334.3" font-family="Times,serif" font-size="14.00">revision :integer</text>
<text text-anchor="start" x="392" y="-319.3" font-family="Times,serif" font-size="14.00">text :text</text>
<text text-anchor="start" x="392" y="-304.3" font-family="Times,serif" font-size="14.00">source :string</text>
<text text-anchor="start" x="392" y="-289.3" font-family="Times,serif" font-size="14.00">uri :string</text>
<text text-anchor="start" x="392" y="-274.3" font-family="Times,serif" font-size="14.00">updated_at :datetime</text>
<text text-anchor="start" x="392" y="-259.3" font-family="Times,serif" font-size="14.00">deleted_at :datetime</text>
</g>
<!-- Sample&#45;&gt;SynsetWord -->
<g id="edge10" class="edge"><title>Sample&#45;&gt;SynsetWord</title>
<path fill="none" stroke="#23c6f1" d="M432.86,-440.566C429.124,-454.737 425.134,-469.392 421.105,-483.741"/>
<ellipse fill="none" stroke="#23c6f1" cx="433.894" cy="-436.617" rx="4.00001" ry="4.00001"/>
<polygon fill="#23c6f1" stroke="#23c6f1" points="421.011,-484.073 413.959,-492.471 419.65,-488.884 418.289,-493.696 418.289,-493.696 418.289,-493.696 419.65,-488.884 422.619,-494.92 421.011,-484.073 421.011,-484.073"/>
</g>
<!-- OldSample -->
<g id="node9" class="node"><title>OldSample</title>
<polyline fill="none" stroke="black" points="396,-1 510,-1 "/>
<path fill="none" stroke="black" d="M510,-1C516,-1 522,-7 522,-13"/>
<polyline fill="none" stroke="black" points="522,-13 522,-185 "/>
<path fill="none" stroke="black" d="M522,-185C522,-191 516,-197 510,-197"/>
<polyline fill="none" stroke="black" points="510,-197 396,-197 "/>
<path fill="none" stroke="black" d="M396,-197C390,-197 384,-191 384,-185"/>
<polyline fill="none" stroke="black" points="384,-185 384,-13 "/>
<path fill="none" stroke="black" d="M384,-13C384,-7 390,-1 396,-1"/>
<text text-anchor="middle" x="453" y="-181.8" font-family="Times,serif" font-size="14.00">OldSample</text>
<polyline fill="none" stroke="black" points="384,-174 522,-174 "/>
<text text-anchor="start" x="392" y="-158.8" font-family="Times,serif" font-size="14.00">id :integer</text>
<text text-anchor="start" x="392" y="-143.8" font-family="Times,serif" font-size="14.00">author_id :integer</text>
<text text-anchor="start" x="392" y="-128.8" font-family="Times,serif" font-size="14.00">approver_id :integer</text>
<text text-anchor="start" x="392" y="-113.8" font-family="Times,serif" font-size="14.00">approved_at :datetime</text>
<text text-anchor="start" x="392" y="-98.8" font-family="Times,serif" font-size="14.00">revision :integer</text>
<text text-anchor="start" x="392" y="-83.8" font-family="Times,serif" font-size="14.00">text :text</text>
<text text-anchor="start" x="392" y="-68.8" font-family="Times,serif" font-size="14.00">source :string</text>
<text text-anchor="start" x="392" y="-53.8" font-family="Times,serif" font-size="14.00">uri :string</text>
<text text-anchor="start" x="392" y="-38.8" font-family="Times,serif" font-size="14.00">sample_id :integer</text>
<text text-anchor="start" x="392" y="-23.8" font-family="Times,serif" font-size="14.00">created_at :datetime</text>
<text text-anchor="start" x="392" y="-8.8" font-family="Times,serif" font-size="14.00">deleted_at :datetime</text>
</g>
<!-- Sample&#45;&gt;OldSample -->
<g id="edge8" class="edge"><title>Sample&#45;&gt;OldSample</title>
<path fill="none" stroke="#812a83" d="M453,-242.917C453,-231.223 453,-219.236 453,-207.42"/>
<ellipse fill="none" stroke="#812a83" cx="453" cy="-247.26" rx="4" ry="4"/>
<polygon fill="#812a83" stroke="#812a83" points="453,-207.091 457.5,-197.091 453,-202.091 453,-197.091 453,-197.091 453,-197.091 453,-202.091 448.5,-197.091 453,-207.091 453,-207.091"/>
</g>
<!-- Word -->
<g id="node4" class="node"><title>Word</title>
<polyline fill="none" stroke="black" points="328,-751 442,-751 "/>
<path fill="none" stroke="black" d="M442,-751C448,-751 454,-757 454,-763"/>
<polyline fill="none" stroke="black" points="454,-763 454,-935 "/>
<path fill="none" stroke="black" d="M454,-935C454,-941 448,-947 442,-947"/>
<polyline fill="none" stroke="black" points="442,-947 328,-947 "/>
<path fill="none" stroke="black" d="M328,-947C322,-947 316,-941 316,-935"/>
<polyline fill="none" stroke="black" points="316,-935 316,-763 "/>
<path fill="none" stroke="black" d="M316,-763C316,-757 322,-751 328,-751"/>
<text text-anchor="middle" x="385" y="-931.8" font-family="Times,serif" font-size="14.00">Word</text>
<polyline fill="none" stroke="black" points="316,-924 454,-924 "/>
<text text-anchor="start" x="324" y="-908.8" font-family="Times,serif" font-size="14.00">id :integer</text>
<text text-anchor="start" x="324" y="-893.8" font-family="Times,serif" font-size="14.00">author_id :integer</text>
<text text-anchor="start" x="324" y="-878.8" font-family="Times,serif" font-size="14.00">approver_id :integer</text>
<text text-anchor="start" x="324" y="-863.8" font-family="Times,serif" font-size="14.00">approved_at :datetime</text>
<text text-anchor="start" x="324" y="-848.8" font-family="Times,serif" font-size="14.00">updated_at :datetime</text>
<text text-anchor="start" x="324" y="-833.8" font-family="Times,serif" font-size="14.00">word :string</text>
<text text-anchor="start" x="324" y="-818.8" font-family="Times,serif" font-size="14.00">grammar :string</text>
<text text-anchor="start" x="324" y="-803.8" font-family="Times,serif" font-size="14.00">deleted_at :datetime</text>
<text text-anchor="start" x="324" y="-788.8" font-family="Times,serif" font-size="14.00">revision :integer</text>
<text text-anchor="start" x="324" y="-773.8" font-family="Times,serif" font-size="14.00">accents :integer</text>
<text text-anchor="start" x="324" y="-758.8" font-family="Times,serif" font-size="14.00">uris :string</text>
</g>
<!-- Word&#45;&gt;SynsetWord -->
<g id="edge14" class="edge"><title>Word&#45;&gt;SynsetWord</title>
<path fill="none" stroke="#e5d6c7" d="M385,-742.44C385,-728.542 385,-714.285 385,-700.358"/>
<ellipse fill="none" stroke="#e5d6c7" cx="385" cy="-746.868" rx="4" ry="4"/>
<polygon fill="#e5d6c7" stroke="#e5d6c7" points="385,-700.284 389.5,-690.284 385,-695.284 385,-690.284 385,-690.284 385,-690.284 385,-695.284 380.5,-690.284 385,-700.284 385,-700.284"/>
</g>
<!-- OldWord -->
<g id="node10" class="node"><title>OldWord</title>
<polyline fill="none" stroke="black" points="484,-486.5 598,-486.5 "/>
<path fill="none" stroke="black" d="M598,-486.5C604,-486.5 610,-492.5 610,-498.5"/>
<polyline fill="none" stroke="black" points="610,-498.5 610,-685.5 "/>
<path fill="none" stroke="black" d="M610,-685.5C610,-691.5 604,-697.5 598,-697.5"/>
<polyline fill="none" stroke="black" points="598,-697.5 484,-697.5 "/>
<path fill="none" stroke="black" d="M484,-697.5C478,-697.5 472,-691.5 472,-685.5"/>
<polyline fill="none" stroke="black" points="472,-685.5 472,-498.5 "/>
<path fill="none" stroke="black" d="M472,-498.5C472,-492.5 478,-486.5 484,-486.5"/>
<text text-anchor="middle" x="541" y="-682.3" font-family="Times,serif" font-size="14.00">OldWord</text>
<polyline fill="none" stroke="black" points="472,-674.5 610,-674.5 "/>
<text text-anchor="start" x="480" y="-659.3" font-family="Times,serif" font-size="14.00">id :integer</text>
<text text-anchor="start" x="480" y="-644.3" font-family="Times,serif" font-size="14.00">author_id :integer</text>
<text text-anchor="start" x="480" y="-629.3" font-family="Times,serif" font-size="14.00">approver_id :integer</text>
<text text-anchor="start" x="480" y="-614.3" font-family="Times,serif" font-size="14.00">approved_at :datetime</text>
<text text-anchor="start" x="480" y="-599.3" font-family="Times,serif" font-size="14.00">created_at :datetime</text>
<text text-anchor="start" x="480" y="-584.3" font-family="Times,serif" font-size="14.00">revision :integer</text>
<text text-anchor="start" x="480" y="-569.3" font-family="Times,serif" font-size="14.00">word :string</text>
<text text-anchor="start" x="480" y="-554.3" font-family="Times,serif" font-size="14.00">grammar :string</text>
<text text-anchor="start" x="480" y="-539.3" font-family="Times,serif" font-size="14.00">deleted_at :datetime</text>
<text text-anchor="start" x="480" y="-524.3" font-family="Times,serif" font-size="14.00">word_id :integer</text>
<text text-anchor="start" x="480" y="-509.3" font-family="Times,serif" font-size="14.00">accents :integer</text>
<text text-anchor="start" x="480" y="-494.3" font-family="Times,serif" font-size="14.00">uris :string</text>
</g>
<!-- Word&#45;&gt;OldWord -->
<g id="edge12" class="edge"><title>Word&#45;&gt;OldWord</title>
<path fill="none" stroke="#b0f1cd" d="M448.7,-743.875C456.305,-731.445 464.097,-718.707 471.774,-706.158"/>
<ellipse fill="none" stroke="#b0f1cd" cx="446.509" cy="-747.456" rx="4.00002" ry="4.00002"/>
<polygon fill="#b0f1cd" stroke="#b0f1cd" points="471.848,-706.036 480.906,-699.854 474.458,-701.771 477.067,-697.506 477.067,-697.506 477.067,-697.506 474.458,-701.771 473.228,-695.157 471.848,-706.036 471.848,-706.036"/>
</g>
<!-- Definition&#45;&gt;Synset -->
<g id="edge18" class="edge"><title>Definition&#45;&gt;Synset</title>
<path fill="none" stroke="#09eefe" d="M135.485,-689.695C149.451,-711.815 163.947,-735.251 177.185,-757.117"/>
<ellipse fill="none" stroke="#09eefe" cx="133.308" cy="-686.256" rx="4.00002" ry="4.00002"/>
<polygon fill="#09eefe" stroke="#09eefe" points="177.326,-757.351 178.639,-768.238 179.909,-761.632 182.492,-765.913 182.492,-765.913 182.492,-765.913 179.909,-761.632 186.345,-763.588 177.326,-757.351 177.326,-757.351"/>
</g>
<!-- OldDefinition -->
<g id="node12" class="node"><title>OldDefinition</title>
<polyline fill="none" stroke="black" points="12,-244 126,-244 "/>
<path fill="none" stroke="black" d="M126,-244C132,-244 138,-250 138,-256"/>
<polyline fill="none" stroke="black" points="138,-256 138,-428 "/>
<path fill="none" stroke="black" d="M138,-428C138,-434 132,-440 126,-440"/>
<polyline fill="none" stroke="black" points="126,-440 12,-440 "/>
<path fill="none" stroke="black" d="M12,-440C6,-440 0,-434 0,-428"/>
<polyline fill="none" stroke="black" points="0,-428 0,-256 "/>
<path fill="none" stroke="black" d="M0,-256C0,-250 6,-244 12,-244"/>
<text text-anchor="middle" x="69" y="-424.8" font-family="Times,serif" font-size="14.00">OldDefinition</text>
<polyline fill="none" stroke="black" points="0,-417 138,-417 "/>
<text text-anchor="start" x="8" y="-401.8" font-family="Times,serif" font-size="14.00">id :integer</text>
<text text-anchor="start" x="8" y="-386.8" font-family="Times,serif" font-size="14.00">author_id :integer</text>
<text text-anchor="start" x="8" y="-371.8" font-family="Times,serif" font-size="14.00">approver_id :integer</text>
<text text-anchor="start" x="8" y="-356.8" font-family="Times,serif" font-size="14.00">approved_at :datetime</text>
<text text-anchor="start" x="8" y="-341.8" font-family="Times,serif" font-size="14.00">revision :integer</text>
<text text-anchor="start" x="8" y="-326.8" font-family="Times,serif" font-size="14.00">text :text</text>
<text text-anchor="start" x="8" y="-311.8" font-family="Times,serif" font-size="14.00">source :string</text>
<text text-anchor="start" x="8" y="-296.8" font-family="Times,serif" font-size="14.00">uri :string</text>
<text text-anchor="start" x="8" y="-281.8" font-family="Times,serif" font-size="14.00">definition_id :integer</text>
<text text-anchor="start" x="8" y="-266.8" font-family="Times,serif" font-size="14.00">created_at :datetime</text>
<text text-anchor="start" x="8" y="-251.8" font-family="Times,serif" font-size="14.00">deleted_at :datetime</text>
</g>
<!-- Definition&#45;&gt;OldDefinition -->
<g id="edge16" class="edge"><title>Definition&#45;&gt;OldDefinition</title>
<path fill="none" stroke="#21c73c" d="M69,-493.027C69,-479.089 69,-464.691 69,-450.583"/>
<ellipse fill="none" stroke="#21c73c" cx="69" cy="-497.466" rx="4" ry="4"/>
<polygon fill="#21c73c" stroke="#21c73c" points="69.0001,-450.371 73.5,-440.371 69,-445.371 69,-440.371 69,-440.371 69,-440.371 69,-445.371 64.5,-440.371 69.0001,-450.371 69.0001,-450.371"/>
</g>
<!-- SynsetWord&#45;&gt;Synset -->
<g id="edge22" class="edge"><title>SynsetWord&#45;&gt;Synset</title>
<path fill="none" stroke="#3b9f5b" d="M354.042,-697.409C348.105,-709.69 341.138,-721.549 333,-732 324.365,-743.089 317.323,-740.462 307,-750 304.172,-752.613 301.356,-755.328 298.564,-758.118"/>
<ellipse fill="none" stroke="#3b9f5b" cx="355.735" cy="-693.765" rx="4.00002" ry="4.00002"/>
<polygon fill="#3b9f5b" stroke="#3b9f5b" points="298.204,-758.489 288.008,-762.526 294.72,-762.075 291.236,-765.662 291.236,-765.662 291.236,-765.662 294.72,-762.075 294.464,-768.797 298.204,-758.489 298.204,-758.489"/>
</g>
<!-- SynsetWord&#45;&gt;Sample -->
<g id="edge24" class="edge"><title>SynsetWord&#45;&gt;Sample</title>
<path fill="none" stroke="#b4b0ab" d="M407.205,-485.647C411.023,-471.34 415.055,-456.695 419.087,-442.496"/>
<ellipse fill="none" stroke="#b4b0ab" cx="406.096" cy="-489.829" rx="4.00001" ry="4.00001"/>
<polygon fill="#b4b0ab" stroke="#b4b0ab" points="419.126,-442.362 426.203,-433.985 420.501,-437.555 421.876,-432.747 421.876,-432.747 421.876,-432.747 420.501,-437.555 417.55,-431.51 419.126,-442.362 419.126,-442.362"/>
</g>
<!-- OldSynsetWord -->
<g id="node11" class="node"><title>OldSynsetWord</title>
<polyline fill="none" stroke="black" points="230.5,-236.5 353.5,-236.5 "/>
<path fill="none" stroke="black" d="M353.5,-236.5C359.5,-236.5 365.5,-242.5 365.5,-248.5"/>
<polyline fill="none" stroke="black" points="365.5,-248.5 365.5,-435.5 "/>
<path fill="none" stroke="black" d="M365.5,-435.5C365.5,-441.5 359.5,-447.5 353.5,-447.5"/>
<polyline fill="none" stroke="black" points="353.5,-447.5 230.5,-447.5 "/>
<path fill="none" stroke="black" d="M230.5,-447.5C224.5,-447.5 218.5,-441.5 218.5,-435.5"/>
<polyline fill="none" stroke="black" points="218.5,-435.5 218.5,-248.5 "/>
<path fill="none" stroke="black" d="M218.5,-248.5C218.5,-242.5 224.5,-236.5 230.5,-236.5"/>
<text text-anchor="middle" x="292" y="-432.3" font-family="Times,serif" font-size="14.00">OldSynsetWord</text>
<polyline fill="none" stroke="black" points="218.5,-424.5 365.5,-424.5 "/>
<text text-anchor="start" x="226.5" y="-409.3" font-family="Times,serif" font-size="14.00">id :integer</text>
<text text-anchor="start" x="226.5" y="-394.3" font-family="Times,serif" font-size="14.00">author_id :integer</text>
<text text-anchor="start" x="226.5" y="-379.3" font-family="Times,serif" font-size="14.00">approver_id :integer</text>
<text text-anchor="start" x="226.5" y="-364.3" font-family="Times,serif" font-size="14.00">approved_at :datetime</text>
<text text-anchor="start" x="226.5" y="-349.3" font-family="Times,serif" font-size="14.00">revision :integer</text>
<text text-anchor="start" x="226.5" y="-334.3" font-family="Times,serif" font-size="14.00">word_id :integer</text>
<text text-anchor="start" x="226.5" y="-319.3" font-family="Times,serif" font-size="14.00">nsg :boolean</text>
<text text-anchor="start" x="226.5" y="-304.3" font-family="Times,serif" font-size="14.00">marks :string</text>
<text text-anchor="start" x="226.5" y="-289.3" font-family="Times,serif" font-size="14.00">samples_ids :integer</text>
<text text-anchor="start" x="226.5" y="-274.3" font-family="Times,serif" font-size="14.00">synset_word_id :integer</text>
<text text-anchor="start" x="226.5" y="-259.3" font-family="Times,serif" font-size="14.00">created_at :datetime</text>
<text text-anchor="start" x="226.5" y="-244.3" font-family="Times,serif" font-size="14.00">deleted_at :datetime</text>
</g>
<!-- SynsetWord&#45;&gt;OldSynsetWord -->
<g id="edge20" class="edge"><title>SynsetWord&#45;&gt;OldSynsetWord</title>
<path fill="none" stroke="#75ba2f" d="M345.582,-485.885C342.036,-476.429 338.434,-466.823 334.86,-457.294"/>
<ellipse fill="none" stroke="#75ba2f" cx="347.106" cy="-489.95" rx="4.00001" ry="4.00001"/>
<polygon fill="#75ba2f" stroke="#75ba2f" points="334.811,-457.163 335.513,-446.219 333.055,-452.481 331.3,-447.799 331.3,-447.799 331.3,-447.799 333.055,-452.481 327.086,-449.38 334.811,-457.163 334.811,-457.163"/>
</g>
<!-- User -->
<g id="node8" class="node"><title>User</title>
<polyline fill="none" stroke="black" points="331.5,-986.5 438.5,-986.5 "/>
<path fill="none" stroke="black" d="M438.5,-986.5C444.5,-986.5 450.5,-992.5 450.5,-998.5"/>
<polyline fill="none" stroke="black" points="450.5,-998.5 450.5,-1095.5 "/>
<path fill="none" stroke="black" d="M450.5,-1095.5C450.5,-1101.5 444.5,-1107.5 438.5,-1107.5"/>
<polyline fill="none" stroke="black" points="438.5,-1107.5 331.5,-1107.5 "/>
<path fill="none" stroke="black" d="M331.5,-1107.5C325.5,-1107.5 319.5,-1101.5 319.5,-1095.5"/>
<polyline fill="none" stroke="black" points="319.5,-1095.5 319.5,-998.5 "/>
<path fill="none" stroke="black" d="M319.5,-998.5C319.5,-992.5 325.5,-986.5 331.5,-986.5"/>
<text text-anchor="middle" x="385" y="-1092.3" font-family="Times,serif" font-size="14.00">User</text>
<polyline fill="none" stroke="black" points="319.5,-1084.5 450.5,-1084.5 "/>
<text text-anchor="start" x="327.5" y="-1069.3" font-family="Times,serif" font-size="14.00">id :integer</text>
<text text-anchor="start" x="327.5" y="-1054.3" font-family="Times,serif" font-size="14.00">name :string</text>
<text text-anchor="start" x="327.5" y="-1039.3" font-family="Times,serif" font-size="14.00">provider :string</text>
<text text-anchor="start" x="327.5" y="-1024.3" font-family="Times,serif" font-size="14.00">uid :string</text>
<text text-anchor="start" x="327.5" y="-1009.3" font-family="Times,serif" font-size="14.00">created_at :datetime</text>
<text text-anchor="start" x="327.5" y="-994.3" font-family="Times,serif" font-size="14.00">updated_at :datetime</text>
</g>
<!-- User&#45;&gt;Synset -->
<g id="edge28" class="edge"><title>User&#45;&gt;Synset</title>
<path fill="none" stroke="#b4b5ed" d="M331.71,-979.894C321.367,-967.062 310.363,-953.412 299.523,-939.965"/>
<ellipse fill="none" stroke="#b4b5ed" cx="334.441" cy="-983.281" rx="4.00002" ry="4.00002"/>
<polygon fill="#b4b5ed" stroke="#b4b5ed" points="299.442,-939.864 296.669,-929.255 296.304,-935.972 293.166,-932.079 293.166,-932.079 293.166,-932.079 296.304,-935.972 289.662,-934.903 299.442,-939.864 299.442,-939.864"/>
</g>
<!-- User&#45;&gt;Sample -->
<g id="edge32" class="edge"><title>User&#45;&gt;Sample</title>
<path fill="none" stroke="#b3bfce" d="M455.338,-980.686C459.66,-976.431 463.911,-972.178 468,-968 564.169,-869.738 585.723,-831.404 619,-698 641.805,-606.579 658.265,-571.651 619,-486 600.514,-445.676 564.423,-412.416 530.602,-388.152"/>
<ellipse fill="none" stroke="#b3bfce" cx="452.27" cy="-983.687" rx="4.00002" ry="4.00002"/>
<polygon fill="#b3bfce" stroke="#b3bfce" points="530.258,-387.911 524.645,-378.491 526.162,-385.044 522.065,-382.178 522.065,-382.178 522.065,-382.178 526.162,-385.044 519.485,-385.865 530.258,-387.911 530.258,-387.911"/>
</g>
<!-- User&#45;&gt;Word -->
<g id="edge26" class="edge"><title>User&#45;&gt;Word</title>
<path fill="none" stroke="#850d1e" d="M385,-978.136C385,-971.434 385,-964.525 385,-957.55"/>
<ellipse fill="none" stroke="#850d1e" cx="385" cy="-982.395" rx="4" ry="4"/>
<polygon fill="#850d1e" stroke="#850d1e" points="385,-957.301 389.5,-947.301 385,-952.301 385,-947.301 385,-947.301 385,-947.301 385,-952.301 380.5,-947.301 385,-957.301 385,-957.301"/>
</g>
<!-- User&#45;&gt;Definition -->
<g id="edge34" class="edge"><title>User&#45;&gt;Definition</title>
<path fill="none" stroke="#00d832" d="M312.36,-987.175C311.574,-986.774 310.788,-986.382 310,-986 243.08,-953.518 199.263,-1000.93 147,-948 81.1002,-881.254 65.4312,-772.335 63.8787,-692.719"/>
<ellipse fill="none" stroke="#00d832" cx="315.883" cy="-989.096" rx="4.00002" ry="4.00002"/>
<polygon fill="#00d832" stroke="#00d832" points="63.8782,-692.669 68.2538,-682.614 63.8162,-687.669 63.7541,-682.67 63.7541,-682.67 63.7541,-682.67 63.8162,-687.669 59.2545,-682.726 63.8782,-692.669 63.8782,-692.669"/>
</g>
<!-- User&#45;&gt;SynsetWord -->
<g id="edge30" class="edge"><title>User&#45;&gt;SynsetWord</title>
<path fill="none" stroke="#9c5a16" d="M447.104,-979.509C453.582,-969.543 459.183,-958.925 463,-948 492.025,-864.924 483.109,-835.672 463,-750 459.047,-733.157 453.003,-716.053 445.993,-699.635"/>
<ellipse fill="none" stroke="#9c5a16" cx="444.738" cy="-982.992" rx="4.00002" ry="4.00002"/>
<polygon fill="#9c5a16" stroke="#9c5a16" points="445.802,-699.202 445.878,-688.236 443.782,-694.628 441.762,-690.054 441.762,-690.054 441.762,-690.054 443.782,-694.628 437.645,-691.872 445.802,-699.202 445.802,-699.202"/>
</g>
</g>
</svg>
